_________________________  Visit us at _________________________
  
http://tinym.eu  ____________________________  http://p2pdl.com


Looper 2012 DVDRip 350MB x264 AAC - ViZNU [P2PDL]

					
Genre: Action | Sci-Fi | Thriller
Plot: In 2074, when the mob wants to get rid of someone, the target is sent 30 years into the past,
where a hired gun awaits. Someone like Joe, who one day learns the mob wants to 'close the loop' by
transporting back Joe's future self.  
Director: Rian Johnson
Stars: Joseph Gordon-Levitt, Bruce Willis and Emily Blunt.
Rated: R for strong violence, language, some sexuality/nudity and drug content. 
http://cinemahouse.in/movie/219/Looper


General
Release name                   : Looper 2012 DVDRip 350MB x264 AAC - ViZNU [P2PDL]
Format                         : MPEG-4
File size                      : 352 MiB
Duration                       : 1h 53mn
Overall bit rate mode          : Variable
Overall bit rate               : 432 Kbps
Source                         : DVDR-Ltu(Thanks)

Video
ID                             : 1
Format                         : AVC
Format/Info                    : Advanced Video Codec
Codec ID                       : avc1
Codec ID/Info                  : Advanced Video Coding
Duration                       : 1h 53mn
Bit rate                       : 389 Kbps
Maximum bit rate               : 4 190 Kbps
Width                          : 720 pixels
Height                         : 288 pixels(cropped)
Display aspect ratio           : 2.500
Frame rate mode                : Constant
Frame rate                     : 25.000 fps
Stream size                    : 316 MiB (90%)
Writing library                : x264 

Audio
ID                             : 2
Format                         : AAC
Format/Info                    : Advanced Audio Codec
Format profile                 : HE-AAC / LC
Codec ID                       : 40
Duration                       : 1h 53mn
Bit rate mode                  : Variable
Bit rate                       : 40.0 Kbps
Maximum bit rate               : 51.2 Kbps
Channel(s)                     : 2 channels
Channel positions              : Front: L R
Sampling rate                  : 44.1 KHz / 22.05 KHz
Stream size                    : 32.5 MiB (9%)
Language                       : English


Subtitle                       : Yes(English)


Screens:

 
http://www.shotpix.com/images/64802897885804887551.png 
http://www.shotpix.com/images/99576305666044983269.png 
http://www.shotpix.com/images/68457753347332643246.png 
http://www.shotpix.com/images/14379255551868748862.png 
http://www.shotpix.com/images/43371351560634996222.png 
http://www.shotpix.com/images/72418431112617940660.png


----------------------------------------------------------------------------------------------------


Recommend to you to use latest version of VLC player. Install K-Lite Codec Pack or shark007 codecs
in case of any kind of problem in playback (For non-VLC Media Player users). Alternatively, install
Core AVC codecs, the fastest decoder that there is coupled with Community Center Codec Pack and play
on Windows Media Player Classic. Check sample to be sure.
Enjoy!


Greets to: Vitamin_X, a2zRG, srkfan, staff members at ExtraTorrent, TPB,KAT, 1337x, PublicHD, Ahashare,
BTScene, SilverTorrent, TorrentMafia, DigTorrent, P2PDL, and all others.


Encoder Notes: Looking For Early Access To Anything You Can Provide DVDScr, R5, DVDR, BluRay, Direct
Audio, Early Music Releases, Seedboxes, Dedicated Servers anything u can provide, Advance / Promo CDs/
DVDs. If You Got anything to offer contact me at "prg@hush.com".


Facebook Fan Page: www . facebook . com / p2pdl